<svg width="630" height="630" viewBox="0 0 630 630" fill="none" xmlns="http://www.w3.org/2000/svg">
<g clip-path="url(#clip0_53_29)">
<mask id="mask0_53_29" style="mask-type:alpha" maskUnits="userSpaceOnUse" x="109" y="110" width="412" height="412">
<circle cx="315" cy="316" r="206" fill="black"/>
</mask>
<g mask="url(#mask0_53_29)">
<path d="M400.46 324.531L399.966 324.456L400.46 324.531C400.769 322.504 401.099 320.898 401.395 319.889C401.438 319.739 401.48 319.607 401.52 319.491C401.572 319.654 401.626 319.841 401.682 320.052C401.837 320.643 401.992 321.386 402.143 322.244C402.445 323.96 402.725 326.113 402.952 328.388C403.407 332.946 403.641 337.94 403.41 340.841L403.41 340.841C402.933 346.863 401.522 351.752 395.379 368.484L395.849 368.656L395.379 368.484C391.166 379.962 388.304 391.562 386.255 405.444L386.75 405.517L386.255 405.444C385.838 408.278 385.394 410.808 385.017 412.599C384.864 413.328 384.723 413.928 384.601 414.373C384.477 414.025 384.349 413.575 384.221 413.031C383.922 411.767 383.631 410.054 383.376 408.086C382.866 404.153 382.505 399.247 382.5 394.975C382.484 380.419 384.642 371.178 392.006 354.387L391.548 354.186L392.006 354.387C396.362 344.454 398.669 336.305 400.46 324.531Z" fill="black" stroke="black"/>
<path d="M355.896 352.189L355.679 352.225L356.404 351.579C369.598 339.804 375.634 332.136 381.415 319.755C385.279 311.479 387.607 304.411 390.211 293.074C390.746 290.742 391.28 288.678 391.709 287.234C391.768 287.033 391.825 286.846 391.88 286.672C391.898 286.898 391.916 287.145 391.933 287.41C392.023 288.797 392.087 290.653 392.105 292.641L392.105 292.641C392.273 311.258 386.712 328.126 376.674 339.615C370.259 346.957 363.769 350.867 355.896 352.189C355.896 352.189 355.896 352.189 355.896 352.189Z" fill="black" stroke="black"/>
<path d="M171.546 325.361L171.64 325.853L171.546 325.361C169.942 325.668 168.47 325.927 167.277 326.117C168.29 325.708 169.508 325.237 170.801 324.758L170.801 324.758C186.307 319.008 201.825 317.1 213.993 319.408C221.636 320.857 226.476 323.346 229.561 327.291L229.019 327.126C215.798 323.082 207.85 321.927 196.046 322.347C188.156 322.627 181.667 323.427 171.546 325.361Z" fill="black" stroke="black"/>
<path d="M238.762 237.716C238.64 231.278 239.502 226.28 241.112 223.549C241.341 223.162 241.932 222.54 242.751 221.843C243.555 221.159 244.532 220.442 245.482 219.86L245.221 219.434L245.482 219.86C248.255 218.163 250.583 215.847 255.175 210.286L255.175 210.286C256.826 208.287 258.574 206.315 260.059 204.748C260.802 203.964 261.476 203.286 262.037 202.757C262.607 202.22 263.036 201.863 263.295 201.699L263.295 201.699C265.305 200.433 268.118 198.915 270.423 197.788C271.149 197.433 271.82 197.119 272.397 196.864C271.635 197.459 270.649 198.173 269.578 198.895L269.578 198.895C263.498 202.992 260.265 206.232 256.569 211.942C251.779 219.343 249.321 222.33 246.847 223.914C245.056 225.061 243.918 226.103 243.114 227.994C242.333 229.834 241.876 232.46 241.328 236.729C241.069 238.745 240.916 240.539 240.832 241.853C240.79 242.511 240.765 243.05 240.753 243.439C240.747 243.633 240.745 243.792 240.745 243.91C240.745 243.969 240.745 244.021 240.747 244.064C240.748 244.087 240.749 244.128 240.755 244.171C240.773 244.42 240.716 244.724 240.595 245.066C240.472 245.41 240.296 245.759 240.109 246.078C239.981 246.297 239.851 246.496 239.736 246.664C239.68 246.528 239.618 246.349 239.552 246.116C239.223 244.949 238.854 242.558 238.762 237.716Z" fill="black" stroke="black"/>
<path d="M318.861 185.189C317.873 185.568 316.485 186.142 314.85 186.929C311.541 188.521 307.209 190.99 303.137 194.497C298.959 198.095 298.233 201.969 297.486 206.896C297.452 207.116 297.419 207.338 297.385 207.563C296.665 212.356 295.78 218.237 291.824 226.103C288.372 232.965 282.32 239.422 275.622 245.032C268.93 250.637 261.625 255.371 255.704 258.795C255.152 259.115 254.621 259.415 254.133 259.686C254.274 259.564 254.419 259.439 254.567 259.313C255.19 258.785 256.852 257.627 258.771 256.29C259.125 256.043 259.488 255.79 259.855 255.534C262.173 253.915 264.633 252.173 265.841 251.112L265.868 251.09L265.977 251.003C266.072 250.927 266.212 250.816 266.391 250.673C266.749 250.387 267.262 249.976 267.884 249.478C269.127 248.48 270.804 247.129 272.538 245.715C274.271 244.301 276.064 242.822 277.538 241.57C279.001 240.329 280.181 239.285 280.664 238.752C280.719 238.692 280.775 238.63 280.835 238.565C282.749 236.457 287.161 231.601 289.138 227.663C292.585 220.797 293.167 219.117 293.333 216.976C293.36 216.625 293.376 216.263 293.394 215.86C293.479 213.921 293.607 211.041 295.22 203.941C297.149 195.456 301.262 191.265 305.041 189.098C306.94 188.009 308.771 187.422 310.23 187.065C310.929 186.894 311.541 186.776 312.041 186.681L312.106 186.668C312.359 186.619 312.588 186.575 312.778 186.532C312.963 186.49 313.143 186.443 313.286 186.381C314.843 185.714 316.609 185.117 318.2 185.152C318.442 185.158 318.662 185.171 318.861 185.189Z" fill="black" stroke="black"/>
<path d="M277.032 157.045L277.032 157.045C277.533 156.247 278.121 155.553 278.665 155.073C278.937 154.833 279.188 154.656 279.401 154.544C279.594 154.443 279.721 154.415 279.789 154.412C279.792 154.413 279.796 154.415 279.801 154.418C279.839 154.438 279.897 154.474 279.975 154.532C280.132 154.648 280.337 154.826 280.588 155.068C281.087 155.549 281.73 156.247 282.476 157.115C283.965 158.85 285.836 161.233 287.727 163.845C293.056 171.208 294.751 174.236 295.358 177.266C295.554 178.243 295.692 178.968 295.758 179.533C295.824 180.102 295.811 180.454 295.741 180.702C295.616 181.143 295.282 181.395 294.144 181.97L294.144 181.97C293.882 182.102 293.38 182.266 292.66 182.445C291.953 182.621 291.07 182.803 290.07 182.98C288.072 183.334 285.625 183.665 283.216 183.887C280.308 184.154 277.833 184.483 275.831 184.869C273.837 185.254 272.283 185.7 271.236 186.212L271.236 186.212C270.43 186.607 269.647 186.917 269.04 187.1C268.75 187.187 268.514 187.241 268.342 187.264C268.354 187.122 268.387 186.931 268.445 186.695C268.585 186.13 268.85 185.386 269.211 184.605C269.602 183.756 270.21 181.761 270.871 179.274C271.538 176.768 272.271 173.716 272.91 170.721C273.545 167.747 274.332 164.71 275.087 162.215C275.464 160.968 275.832 159.861 276.168 158.967C276.508 158.064 276.804 157.408 277.032 157.045ZM279.772 154.404C279.772 154.404 279.771 154.404 279.771 154.404L279.772 154.404ZM268.134 187.273C268.134 187.273 268.136 187.274 268.14 187.274C268.136 187.274 268.134 187.273 268.134 187.273ZM268.342 187.46C268.343 187.463 268.343 187.463 268.342 187.461L268.342 187.46Z" fill="black" stroke="black"/>
<path d="M232.061 298.968L232.036 298.911C231.904 298.607 231.789 298.381 231.691 298.22C231.67 298.311 231.648 298.42 231.628 298.549C231.438 299.777 231.465 302.158 231.672 305.06C232.083 310.845 233.183 318.455 234.476 322.486L234.494 322.54L234.498 322.597C234.979 328.385 237.097 335.274 239.396 340.258C240.275 342.164 241.856 343.898 243.428 345.159C244.212 345.788 244.982 346.29 245.645 346.633C245.689 346.656 245.733 346.678 245.776 346.699C245.18 345.998 244.449 344.959 243.809 343.442L243.809 343.442C242.718 340.858 241.832 338.601 241.351 336.702C240.873 334.817 240.765 333.183 241.352 331.904M232.061 298.968L241.806 332.112M232.061 298.968L232.1 299.018C232.379 299.378 232.672 300.021 232.963 300.93C233.25 301.825 233.521 302.93 233.778 304.174C234.291 306.662 234.739 309.671 235.139 312.602C235.288 313.693 235.431 314.774 235.568 315.813C235.797 317.556 236.011 319.179 236.213 320.525C236.374 321.598 236.529 322.511 236.682 323.177C236.758 323.508 236.836 323.795 236.92 324.016C236.962 324.126 237.01 324.234 237.069 324.329C237.121 324.412 237.216 324.546 237.376 324.626C237.545 324.71 237.763 324.858 238.053 325.055C238.182 325.143 238.326 325.24 238.486 325.346C238.974 325.669 239.566 326.034 240.204 326.291C240.841 326.548 241.56 326.712 242.293 326.59C243.041 326.466 243.744 326.054 244.348 325.268C246.648 322.273 246.533 318.373 245.055 312.99C244.333 310.361 244.344 308.808 244.514 307.747C244.592 307.263 244.704 306.873 244.811 306.499C244.823 306.456 244.835 306.414 244.847 306.371C244.962 305.967 245.073 305.55 245.073 305.091C245.073 304.985 245.137 304.713 245.295 304.324C245.443 303.956 245.65 303.545 245.875 303.185M232.061 298.968L245.875 303.185M241.352 331.904L241.806 332.112M241.352 331.904C241.352 331.904 241.352 331.904 241.351 331.904L241.806 332.112M241.352 331.904C241.462 331.664 241.692 331.296 241.992 330.862C242.298 330.42 242.695 329.881 243.156 329.291C244.078 328.112 245.265 326.715 246.508 325.448C247.745 324.187 249.064 323.028 250.248 322.351C250.839 322.014 251.435 321.773 251.996 321.726C252.579 321.676 253.135 321.837 253.558 322.302L253.558 322.302C254.989 323.871 258.058 326.249 262.001 328.952C265.93 331.644 270.685 334.631 275.454 337.417C280.223 340.204 284.998 342.784 288.966 344.666C290.951 345.607 292.726 346.37 294.194 346.896C295.68 347.429 296.795 347.698 297.483 347.696C300.745 347.69 305.15 347.1 309.408 346.194C313.668 345.287 317.732 344.072 320.32 342.836L320.32 342.836C322.972 341.57 327.052 340.282 329.423 339.971L329.488 340.467M241.806 332.112C242.526 330.543 250.783 320.001 253.189 322.638C259.089 329.111 291.224 348.208 297.484 348.196C304.102 348.184 315.255 345.809 320.536 343.288C323.151 342.039 327.18 340.769 329.488 340.467M329.488 340.467L329.423 339.971L333.62 339.422L334.606 339.293L334.121 340.161L333.003 342.165L332.567 341.922M329.488 340.467L333.067 339.998L333.248 339.674L333.685 339.918L333.749 340.413L333.381 340.462L332.567 341.922M259.27 317.161C269.32 326.692 287.316 340.412 289.319 340.467M259.27 317.161C254.746 312.871 252.536 309.983 249.464 304.348M259.27 317.161L258.926 317.524C254.363 313.196 252.121 310.267 249.025 304.588L249.464 304.348M259.27 317.161L258.926 317.524C263.967 322.305 270.993 328.129 277.007 332.764C280.014 335.081 282.774 337.106 284.911 338.556C285.979 339.281 286.898 339.867 287.618 340.276C287.978 340.479 288.296 340.644 288.563 340.76C288.783 340.855 289.015 340.939 289.223 340.961M289.319 340.467L234 322.638C231.376 314.462 229.586 292.009 232.495 298.712C234.088 300.767 235.194 309.157 236.064 315.755C236.66 320.273 237.145 323.951 237.6 324.178C237.799 324.278 238.062 324.456 238.37 324.666C239.791 325.629 242.189 327.257 243.951 324.963C246.096 322.17 246.046 318.484 244.573 313.122C243.506 309.239 243.985 307.567 244.33 306.362C244.461 305.903 244.573 305.512 244.573 305.091C244.573 304.668 244.969 303.691 245.452 302.919C246.755 300.843 247.745 301.195 249.464 304.348M289.319 340.467C289.319 340.467 298.379 343.343 302.518 343.288C306.657 343.232 316.416 339.641 321.939 337.497C323.965 336.71 325.874 335.551 327.636 334.482C330.678 332.635 333.283 331.053 335.296 332.112M289.319 340.467L289.305 340.967C289.278 340.966 289.251 340.964 289.223 340.961M289.319 340.467C289.167 340.944 289.168 340.944 289.168 340.944L289.168 340.944L289.169 340.944L289.175 340.946L289.195 340.952L289.223 340.961M289.319 340.467L245.875 303.185M249.464 304.348L249.025 304.588C248.601 303.809 248.233 303.226 247.905 302.815C247.57 302.396 247.316 302.208 247.135 302.144C246.996 302.095 246.863 302.101 246.672 302.234C246.453 302.386 246.19 302.684 245.875 303.185M289.223 340.961L289.272 340.977C289.34 340.998 289.441 341.029 289.569 341.068C289.827 341.147 290.199 341.26 290.658 341.395C291.576 341.665 292.844 342.025 294.242 342.382C297.017 343.093 300.379 343.816 302.525 343.788C304.681 343.759 308.225 342.821 311.862 341.652C315.524 340.474 319.355 339.036 322.12 337.963C324.19 337.159 326.158 335.964 327.93 334.889C328.561 334.505 329.167 334.137 329.745 333.807C330.863 333.168 331.869 332.671 332.773 332.43C333.669 332.191 334.416 332.215 335.063 332.555M335.063 332.555C337.313 333.739 338.5 336.134 338.5 340.046C338.5 341.2 338.377 342.106 338.038 343.079C337.694 344.064 337.122 345.141 336.189 346.627C334.264 349.695 332.098 351.393 329.782 351.851C327.47 352.308 324.878 351.554 322.043 349.432L320.418 348.215M335.063 332.555L335.296 332.112M335.063 332.555C335.063 332.555 335.063 332.555 335.063 332.555L335.296 332.112M320.418 348.215L323.68 347.784L323.68 347.784C326.072 347.467 327.925 346.939 329.425 346.04C330.934 345.136 332.049 343.878 333.003 342.165L332.567 341.922M320.418 348.215L319.846 347.787L323.614 347.288C328.332 346.663 330.722 345.23 332.567 341.922M320.418 348.215L319.709 348.309L321.744 349.832C327.545 354.175 332.681 353.16 336.612 346.893C338.489 343.901 339 342.437 339 340.046C339 336.038 337.777 333.418 335.296 332.112M231.809 297.894C231.809 297.894 231.807 297.898 231.803 297.903C231.807 297.896 231.809 297.893 231.809 297.894Z" fill="black" stroke="black"/>
<path d="M252.734 336.886C252.764 336.916 252.795 336.947 252.825 336.978L252.825 336.978C253.885 338.058 255.696 339.568 256.87 340.35L256.871 340.35C257.888 341.026 258.628 341.449 259.662 341.405C260.626 341.365 261.815 340.915 263.758 340.125C264.292 339.908 264.553 339.907 264.813 340.032C265.14 340.188 265.542 340.578 266.22 341.428L266.22 341.428C267.385 342.888 268.332 343.827 269.44 344.119C270.57 344.418 271.729 344.012 273.2 343.239L272.968 342.796L273.2 343.239C274.927 342.333 276.534 341.9 278.191 341.917C279.852 341.934 281.601 342.403 283.609 343.357C284.476 343.77 285.28 344.179 285.899 344.516C285.052 344.507 283.9 344.455 282.62 344.36C280.443 344.199 279.06 344.154 277.89 344.378C276.698 344.607 275.759 345.107 274.454 345.943C272.363 347.281 271.048 347.826 270.009 347.756C269.016 347.689 268.132 347.044 266.944 345.507C266.465 344.887 266.086 344.399 265.763 344.044C265.445 343.694 265.131 343.415 264.767 343.279C264.373 343.132 263.998 343.18 263.624 343.312C263.271 343.437 262.866 343.659 262.395 343.917L262.395 343.917C261.893 344.193 261.332 344.38 260.831 344.462C260.31 344.546 259.935 344.503 259.751 344.411L259.751 344.411C259.43 344.252 258.944 343.891 258.344 343.359C257.753 342.835 257.082 342.172 256.397 341.439C255.039 339.987 253.647 338.284 252.734 336.886Z" fill="black" stroke="black"/>
<path d="M350.891 394.038L350.891 394.038C351.305 393.647 351.631 393.369 351.875 393.192C351.859 393.263 351.838 393.342 351.813 393.429C351.676 393.903 351.43 394.56 351.068 395.415C351.068 395.415 351.068 395.415 351.068 395.415L349.904 398.17L349.668 398.729L350.262 398.854L353.19 399.471L353.19 399.471C354.052 399.652 355.064 399.699 356.005 399.634C356.938 399.569 357.853 399.391 358.503 399.088C358.779 398.96 359.011 398.852 359.206 398.766C359.139 398.893 359.062 399.037 358.974 399.2L358.974 399.201C357.768 401.448 355.003 402.875 351.213 402.985C349.979 403.021 349.007 403.164 348.225 403.487C347.424 403.819 346.85 404.328 346.399 405.041L346.399 405.041C345.742 406.076 344.502 407.325 343.234 408.322C342.604 408.817 341.981 409.24 341.438 409.536C341.08 409.732 340.784 409.857 340.559 409.923C340.626 409.705 340.756 409.389 340.971 408.956C341.559 407.766 342.682 405.885 344.428 403.149L344.428 403.149C345.759 401.062 347.158 398.987 348.338 397.326C349.532 395.645 350.471 394.436 350.891 394.038ZM340.5 410.207C340.5 410.207 340.5 410.206 340.5 410.204L340.5 410.207Z" fill="black" stroke="black"/>
<path d="M363.074 383.357C367.749 388.579 372.132 396.155 373.584 401.52M363.074 383.357C361.159 381.219 359.479 379.523 358.616 378.825C358.639 378.876 358.666 378.932 358.696 378.994C358.848 379.299 359.071 379.699 359.354 380.168M363.074 383.357L362.702 383.691M363.074 383.357L362.702 383.691M373.584 401.52L371.011 407.944C367.772 394.73 366.146 390.725 361.258 383.927C359.869 381.993 358.681 380.114 358.213 379.144C358.442 379.322 358.761 379.603 359.158 379.98C359.222 380.04 359.287 380.103 359.354 380.168M373.584 401.52C377.352 415.445 386.684 436.226 398.181 456.298M373.584 401.52L398.181 456.298M359.354 380.168C359.36 380.178 359.367 380.188 359.373 380.199C359.955 381.162 360.766 382.386 361.664 383.635C364.122 387.054 365.774 389.79 367.216 393.341C368.653 396.881 369.876 401.216 371.496 407.825C376.329 427.539 379.848 436.853 392.628 463.717C396.367 471.576 402.967 483.644 408.786 493.652C411.696 498.655 414.406 503.137 416.462 506.316C417.491 507.907 418.351 509.163 418.986 509.992C419.184 510.251 419.356 510.461 419.5 510.625M359.354 380.168C360.242 381.025 361.417 382.255 362.702 383.691M362.702 383.691C367.337 388.869 371.675 396.378 373.101 401.651L373.101 401.651C376.885 415.634 386.24 436.457 397.747 456.547C405.696 470.424 411.732 483.291 415.403 494.174L415.403 494.174C416.799 498.31 417.981 502.523 418.712 505.764C419.078 507.386 419.328 508.752 419.438 509.738C419.478 510.094 419.498 510.39 419.5 510.625M419.5 510.625C419.589 510.726 419.667 510.809 419.736 510.875C419.825 510.961 419.875 510.995 419.889 511.004M419.5 510.625C419.501 510.717 419.499 510.8 419.494 510.873C419.486 511.005 419.471 511.084 419.458 511.124C419.456 511.13 419.455 511.134 419.454 511.137M419.889 511.004C419.853 510.988 419.706 510.939 419.542 511.047C419.486 511.084 419.461 511.123 419.454 511.137M419.889 511.004C419.89 511.004 419.89 511.004 419.891 511.004C419.901 511.01 419.9 511.008 419.889 511.004ZM419.454 511.137C419.452 511.141 419.451 511.143 419.451 511.143C419.451 511.144 419.452 511.142 419.454 511.137ZM398.181 456.298C406.14 470.194 412.192 483.091 415.877 494.015L398.181 456.298ZM358.23 378.942C358.196 378.958 358.163 378.967 358.134 378.972C358.044 378.769 357.997 378.621 358 378.538C358.003 378.456 358.083 378.462 358.229 378.547C358.229 378.547 358.229 378.547 358.229 378.547C358.295 378.585 358.374 378.638 358.465 378.707C358.429 378.791 358.36 378.886 358.23 378.942Z" fill="black" stroke="black"/>
<path d="M306.108 393.649C302.667 398.801 300.078 405.466 299.867 409.586L299.867 409.586C299.298 420.674 294.73 438.374 287.851 456.245C283.101 468.582 280.033 479.576 278.869 488.399L278.869 488.399C278.426 491.751 278.214 495.087 278.228 497.59C278.235 498.845 278.298 499.872 278.412 500.583C278.448 500.806 278.488 500.987 278.528 501.129C278.649 500.954 278.796 500.714 278.968 500.409C279.41 499.622 279.979 498.463 280.641 497.01C281.963 494.109 283.639 490.078 285.395 485.615C288.908 476.687 292.726 466.061 294.653 459.328C301.244 436.293 302.614 428.621 302.913 413.222C303.013 408.049 303.239 404.588 303.866 401.614C304.495 398.628 305.522 396.154 307.193 392.947C307.687 392 308.127 391.083 308.467 390.31C307.805 391.181 306.983 392.339 306.108 393.649ZM306.108 393.649L305.692 393.372M306.108 393.649L305.692 393.372M305.692 393.372C302.223 398.566 299.585 405.318 299.368 409.56C298.803 420.57 294.256 438.213 287.384 456.065C282.626 468.424 279.545 479.458 278.373 488.333L305.692 393.372Z" fill="black" stroke="black"/>
<path d="M239.985 414.577C238.792 416.599 238.035 421.062 238.172 425.278C238.214 426.586 238.287 427.753 238.369 428.558L239.985 414.577ZM239.985 414.577C243.082 409.328 246.228 398.94 248.279 387.195C249.699 379.064 251.548 372.438 253.687 367.818L239.985 414.577ZM239.595 420.637C239.087 422.055 238.83 423.458 238.67 425.234C238.606 423.168 238.759 421.043 239.073 419.188C239.391 417.314 239.866 415.763 240.416 414.831L240.416 414.831C243.56 409.502 246.718 399.04 248.772 387.281C250.188 379.17 252.028 372.592 254.141 368.028L254.141 368.028C254.944 366.293 255.854 364.696 256.618 363.597C256.954 363.111 257.251 362.74 257.488 362.498C257.488 362.595 257.486 362.706 257.482 362.83C257.461 363.418 257.39 364.242 257.274 365.252C257.044 367.268 256.643 369.984 256.15 372.939C255.162 378.853 253.807 385.688 252.704 389.746C248.925 403.658 247.262 407.816 242.709 414.854C241.169 417.235 240.205 418.933 239.595 420.637ZM257.453 362.021C257.453 362.02 257.454 362.023 257.456 362.029C257.454 362.024 257.453 362.021 257.453 362.021Z" fill="black" stroke="black"/>
<path d="M399.274 252.309C398.852 251.698 398.476 251.129 398.178 250.652C398.34 250.777 398.513 250.918 398.696 251.074C399.571 251.82 400.641 252.881 401.781 254.126C404.062 256.616 406.592 259.806 408.37 262.598C416.657 275.612 421.782 289.634 424.291 306.18C424.736 309.115 425.025 310.83 425.357 311.921C425.526 312.476 425.712 312.896 425.952 313.245C426.194 313.598 426.473 313.853 426.79 314.096L427.094 313.7L426.79 314.096C429.265 315.999 432.087 319.273 434.72 323.167C437.349 327.053 439.767 331.524 441.446 335.792C445.657 346.492 450.671 365.269 451.875 374.831C452.318 378.344 452.522 385.676 452.498 392.498C452.486 395.904 452.417 399.171 452.294 401.757C452.27 402.259 452.244 402.735 452.216 403.181C452.213 402.861 452.211 402.521 452.209 402.159C452.087 379.22 448.7 364.588 437.422 338.188C434.818 332.093 431.358 324.735 429.728 321.834L429.292 322.079L429.728 321.834L426.789 316.604L425.914 315.047L425.853 316.832L425.551 325.753C425.468 328.199 425.321 330.698 425.151 332.753C425.045 334.029 424.932 335.115 424.822 335.908C424.358 326.301 421.452 309.242 418.073 296.361C414.319 282.046 405.451 261.248 399.274 252.309ZM399.274 252.309L398.863 252.593M399.274 252.309L398.863 252.593M398.863 252.593C404.997 261.47 413.845 282.21 417.59 296.488C421.035 309.624 423.985 327.104 424.349 336.537L424.401 337.884L397.235 250.046C397.545 250.61 398.137 251.543 398.863 252.593Z" fill="black" stroke="black"/>
<path d="M230.816 410.053L231.08 416.885C231.08 416.885 231.08 416.885 231.08 416.885C231.153 418.756 231.281 420.666 231.43 422.236C231.495 422.925 231.563 423.539 231.631 424.05C232.138 416.581 234.627 403.941 237.505 394.336C239.153 388.835 241.92 382.105 244.944 375.902C247.965 369.704 251.261 363.996 253.978 360.554C254.193 360.281 254.395 360.019 254.577 359.776C254.562 359.787 254.546 359.799 254.531 359.81C253.769 360.379 252.835 361.189 251.839 362.141C249.846 364.045 247.637 366.483 246.087 368.614C238.847 378.565 234.372 389.283 232.18 401.93C231.792 404.173 231.537 405.501 231.241 406.351C231.09 406.787 230.92 407.123 230.699 407.405C230.478 407.687 230.225 407.888 229.947 408.076L229.667 407.661L229.947 408.076C227.79 409.527 225.328 412.027 223.028 415.002C220.733 417.973 218.623 421.387 217.158 424.644C213.478 432.829 209.096 447.195 208.045 454.5C207.66 457.177 207.481 462.781 207.502 468.006C207.511 470.273 207.557 472.459 207.64 474.29C207.866 457.325 210.919 446.147 220.584 426.345C222.863 421.676 225.893 416.036 227.324 413.808L227.745 414.078L227.324 413.808L229.895 409.803L230.754 408.465L230.816 410.053Z" fill="black" stroke="black"/>
<path d="M300.985 262.991L300.985 262.991C300.073 261.775 298.753 259.511 297.665 257.412C297.22 256.553 296.818 255.731 296.502 255.027C296.6 255.154 296.702 255.288 296.805 255.426L296.805 255.426C300.37 260.194 303.687 263.247 308.194 265.892C313.131 268.789 315.754 272.362 315.735 275.71C315.732 276.343 315.68 276.816 315.598 277.141C315.539 277.374 315.478 277.48 315.446 277.524C315.425 277.513 315.393 277.494 315.35 277.46C315.179 277.327 314.944 277.055 314.66 276.591L314.66 276.591C314.502 276.334 314.197 275.968 313.812 275.545C313.418 275.113 312.915 274.595 312.338 274.024C311.185 272.883 309.726 271.525 308.24 270.222L307.911 270.598L308.24 270.222C305.285 267.633 302.023 264.373 300.985 262.991ZM315.484 277.538C315.485 277.538 315.481 277.538 315.472 277.536C315.48 277.535 315.484 277.537 315.484 277.538Z" fill="black" stroke="black"/>
<path d="M271.76 353.139L271.76 353.139C273.244 353.47 275.718 354.335 277.909 355.224C278.805 355.588 279.645 355.952 280.342 356.281C280.185 356.249 280.021 356.213 279.852 356.175L279.852 356.175C274.045 354.866 269.54 354.7 264.395 355.617C258.76 356.621 254.445 355.608 252.284 353.05C251.875 352.567 251.607 352.173 251.459 351.873C251.352 351.658 251.33 351.537 251.325 351.483C251.349 351.477 251.386 351.472 251.44 351.469C251.657 351.459 252.012 351.514 252.529 351.682L252.53 351.682C252.816 351.775 253.286 351.855 253.853 351.926C254.433 351.999 255.153 352.066 255.962 352.125C257.58 352.243 259.571 352.329 261.547 352.354L261.553 351.854L261.547 352.354C265.476 352.403 270.073 352.762 271.76 353.139ZM251.288 351.498C251.287 351.497 251.29 351.495 251.298 351.491C251.293 351.496 251.288 351.498 251.288 351.498Z" fill="black" stroke="black"/>
<path d="M314.924 241.104L314.924 241.104C315.398 240.471 315.932 239.844 316.407 239.346C316.644 239.096 316.863 238.884 317.05 238.72C317.245 238.55 317.378 238.456 317.447 238.421C318.622 237.828 320.28 237.834 322.08 238.429C323.869 239.02 325.73 240.171 327.258 241.756C327.258 241.756 327.258 241.756 327.258 241.756L329.343 243.919L328.104 245.556L328.104 245.556C327.708 246.08 327.207 246.649 326.72 247.143C326.227 247.643 325.775 248.038 325.476 248.232C324.593 248.804 323.095 249.065 321.367 248.955C319.656 248.846 317.81 248.378 316.287 247.59C315.499 247.182 314.597 246.814 313.774 246.547C312.966 246.284 312.18 246.101 311.645 246.101C311.232 246.101 310.877 246.044 310.642 245.965C310.604 245.953 310.572 245.941 310.546 245.929C310.585 245.838 310.646 245.723 310.727 245.59C310.895 245.315 311.129 244.994 311.385 244.687C311.641 244.379 311.906 244.098 312.131 243.899C312.244 243.799 312.337 243.728 312.405 243.686C312.427 243.673 312.442 243.665 312.452 243.66C312.54 243.652 312.61 243.624 312.648 243.607C312.701 243.583 312.748 243.555 312.786 243.53C312.861 243.479 312.938 243.415 313.012 243.348C313.163 243.211 313.345 243.024 313.543 242.805C313.94 242.364 314.432 241.762 314.924 241.104ZM310.434 245.867C310.434 245.867 310.435 245.868 310.436 245.869C310.435 245.868 310.434 245.867 310.434 245.867ZM317.727 242.391C318.185 242.488 318.784 242.581 319.539 242.687C320.128 242.769 320.653 242.798 321.097 242.774C321.533 242.75 321.929 242.675 322.234 242.521C322.548 242.363 322.839 242.076 322.845 241.639C322.849 241.254 322.623 240.914 322.354 240.639C321.657 239.928 320.448 239.538 319.382 239.438C318.837 239.386 318.289 239.407 317.816 239.518C317.357 239.625 316.888 239.839 316.616 240.243C316.441 240.502 316.259 240.798 316.211 241.094C316.184 241.262 316.196 241.447 316.284 241.627C316.37 241.802 316.505 241.927 316.645 242.018C316.908 242.188 317.285 242.297 317.727 242.391ZM326.485 245.382C326.782 245.382 327.075 245.285 327.314 245.146C327.551 245.008 327.784 244.801 327.919 244.533C328.058 244.256 328.086 243.905 327.876 243.613C327.678 243.336 327.354 243.236 327.061 243.236C326.764 243.236 326.471 243.333 326.232 243.472C325.995 243.609 325.762 243.817 325.627 244.084C325.488 244.362 325.46 244.713 325.67 245.005C325.868 245.282 326.192 245.382 326.485 245.382Z" fill="black" stroke="black"/>
<path d="M253.829 241.009L253.829 241.009C254.125 241.666 254.419 242.267 254.658 242.708C254.776 242.927 254.885 243.115 254.977 243.253C255.022 243.321 255.071 243.39 255.123 243.448C255.148 243.476 255.186 243.515 255.235 243.551C255.253 243.565 255.302 243.601 255.373 243.628C255.405 243.664 255.45 243.721 255.506 243.805C255.639 244.001 255.798 244.281 255.952 244.59C256.106 244.898 256.248 245.222 256.35 245.502C256.435 245.733 256.478 245.896 256.493 245.987C256.486 245.992 256.477 245.997 256.466 246.003C256.375 246.054 256.215 246.101 256.013 246.101C255.793 246.101 255.553 246.163 255.33 246.244C255.098 246.327 254.846 246.444 254.59 246.582C254.079 246.859 253.523 247.238 253.039 247.655C252.158 248.416 251.103 248.855 250.146 248.957C249.181 249.059 248.385 248.816 247.918 248.312L253.829 241.009ZM253.829 241.009C253.544 240.375 253.224 239.747 252.939 239.249C252.797 239 252.666 238.788 252.555 238.627C252.5 238.546 252.452 238.482 252.413 238.433C252.393 238.409 252.377 238.391 252.365 238.377C252.358 238.371 252.353 238.366 252.35 238.362C252.346 238.359 252.345 238.357 252.345 238.358C251.759 237.864 250.917 237.832 249.899 238.392C248.88 238.953 247.78 240.072 246.862 241.659L245.562 243.907L246.353 245.651L246.353 245.651M253.829 241.009L246.353 245.651M246.353 245.651C246.592 246.177 246.893 246.747 247.185 247.239M246.353 245.651L247.185 247.239M247.185 247.239C247.482 247.742 247.749 248.129 247.918 248.312L247.185 247.239ZM250.313 242.773C250.623 242.8 250.973 242.766 251.349 242.678L250.313 242.773ZM250.313 242.773C250.007 242.745 249.707 242.654 249.473 242.458M250.313 242.773L249.473 242.458M249.473 242.458C249.225 242.249 249.096 241.958 249.093 241.636M249.473 242.458L249.093 241.636M249.093 241.636C249.091 241.332 249.2 241.026 249.371 240.735M249.093 241.636L249.371 240.735M249.371 240.735C249.805 239.997 250.59 239.556 251.322 239.441C252.029 239.331 252.913 239.514 253.245 240.335L249.371 240.735ZM253.475 241.125C253.45 240.873 253.354 240.602 253.245 240.335L253.475 241.125ZM253.475 241.125C253.502 241.41 253.44 241.697 253.216 241.938M253.475 241.125L253.216 241.938M253.216 241.938C253.024 242.146 252.75 242.274 252.468 242.373M253.216 241.938L252.468 242.373M252.468 242.373C252.176 242.476 251.802 242.572 251.349 242.678L252.468 242.373ZM256.526 245.961C256.525 245.961 256.523 245.962 256.52 245.967C256.525 245.963 256.526 245.961 256.526 245.961ZM247.109 245.382C246.815 245.382 246.573 245.226 246.414 245.073C246.247 244.911 246.111 244.694 246.038 244.453C245.967 244.217 245.955 243.947 246.059 243.707C246.172 243.442 246.424 243.236 246.763 243.236C247.057 243.236 247.299 243.391 247.458 243.545C247.626 243.707 247.762 243.924 247.834 244.165C247.905 244.401 247.917 244.67 247.814 244.911C247.7 245.175 247.448 245.382 247.109 245.382Z" fill="black" stroke="black"/>
<path d="M352.894 168.079L352.894 168.079C353.414 165.947 353.997 163.769 354.515 161.979C355.038 160.173 355.486 158.8 355.735 158.25L355.28 158.044L355.735 158.25C355.987 157.698 356.305 157.192 356.607 156.827C356.759 156.644 356.897 156.507 357.012 156.418C357.12 156.334 357.171 156.32 357.171 156.319C357.171 156.319 357.171 156.319 357.171 156.319C357.26 156.312 357.429 156.332 357.696 156.417C357.957 156.501 358.274 156.635 358.636 156.816C359.36 157.179 360.232 157.714 361.153 158.357C362.997 159.644 364.996 161.332 366.367 162.87L366.367 162.87C367.141 163.737 368.812 165.196 370.853 166.836C372.905 168.484 375.361 170.339 377.728 172.004L378.015 171.595L377.728 172.004C391.468 181.669 398.802 189.752 402.438 199.096C404.654 204.791 405.132 208.875 404.312 215.161L404.312 215.161C403.699 219.869 401.482 226.281 399.171 230.175C399.892 227.904 400.549 225.145 401.04 222.469C401.639 219.208 402 216.022 401.918 213.967L401.419 213.987L401.918 213.967C401.828 211.722 401.537 209.263 401.192 207.39C401.02 206.456 400.832 205.65 400.642 205.084C400.55 204.807 400.446 204.554 400.328 204.369C400.27 204.28 400.186 204.168 400.064 204.086C399.927 203.992 399.715 203.925 399.486 204.014C399.362 204.062 399.26 204.154 399.211 204.198C399.143 204.26 399.068 204.337 398.989 204.422C398.829 204.595 398.632 204.828 398.411 205.101C397.969 205.648 397.418 206.378 396.862 207.159C395.79 208.666 394.544 210.112 393.373 211.255C392.397 212.207 391.509 212.914 390.837 213.286C390.978 212.751 391.321 211.892 391.886 210.704C392.901 208.573 394.049 205.65 394.438 204.19C394.81 202.796 395.557 200.667 396.091 199.479C396.091 199.478 396.091 199.478 396.091 199.478L397.084 197.27L397.211 196.988L397.016 196.748L393.848 192.87C389.43 187.459 383.866 182.363 376.763 177.213C368.506 171.224 365.469 168.63 362.37 164.953L362.37 164.952C361.619 164.062 360.866 163.272 360.252 162.716C359.947 162.439 359.665 162.21 359.427 162.054C359.31 161.977 359.186 161.907 359.064 161.861C358.967 161.824 358.756 161.756 358.533 161.843C358.415 161.889 358.332 161.966 358.289 162.009C358.239 162.061 358.193 162.118 358.152 162.175C358.07 162.287 357.983 162.431 357.894 162.594C357.713 162.921 357.498 163.369 357.262 163.899C356.789 164.962 356.221 166.39 355.67 167.929C354.025 172.518 351.934 177.235 350.018 180.892C349.116 182.614 348.257 184.093 347.506 185.21C348.166 183.884 348.874 182.065 349.617 179.82C350.644 176.718 351.75 172.761 352.894 168.079ZM390.417 213.485C390.417 213.484 390.418 213.484 390.421 213.483C390.418 213.484 390.417 213.485 390.417 213.485ZM361.614 176.745L361.614 176.745C361.618 175.635 361.7 174.881 361.831 174.442C361.865 174.328 361.898 174.251 361.923 174.201C361.968 174.237 362.024 174.291 362.091 174.369C362.231 174.532 362.396 174.773 362.583 175.103C362.955 175.762 363.386 176.723 363.865 177.995C364.517 179.73 365.136 181.003 365.635 182.024C366.14 183.059 366.496 183.789 366.672 184.493C367.004 185.818 366.713 187.13 364.917 190.288C364.009 191.883 362.645 193.581 361.379 194.826C360.745 195.449 360.152 195.944 359.666 196.255C359.515 196.352 359.381 196.426 359.265 196.481C359.302 196.344 359.349 196.184 359.407 196.002C359.627 195.309 359.984 194.36 360.425 193.326L360.425 193.326C361.26 191.367 361.543 188.979 361.629 186.229C361.681 184.573 361.661 182.75 361.639 180.785C361.625 179.497 361.61 178.148 361.614 176.745ZM374.522 209.205L374.522 209.205C372.724 208.592 371.699 206.692 372.093 204.256C372.251 203.286 372.648 200.799 372.976 198.729C373.101 197.94 373.209 197.329 373.312 196.865C373.418 196.391 373.512 196.11 373.594 195.955C373.599 195.945 373.604 195.936 373.609 195.928C373.645 195.949 373.7 195.983 373.776 196.04L373.776 196.04C373.813 196.068 373.899 196.159 374.022 196.355C374.138 196.54 374.267 196.784 374.403 197.078C374.674 197.665 374.959 198.418 375.219 199.226C375.745 200.857 376.144 202.627 376.155 203.644C376.159 203.997 376.376 204.251 376.589 204.412C376.805 204.575 377.088 204.7 377.399 204.799C378.027 204.999 378.893 205.129 379.911 205.181L379.936 204.681C382.674 204.82 383.275 204.672 383.624 203.778L384.09 203.96C384.09 203.96 384.09 203.959 384.09 203.959C384.23 203.6 384.606 202.983 385.137 202.232C385.659 201.495 386.303 200.666 386.945 199.895C387.588 199.123 388.223 198.417 388.726 197.921C388.874 197.775 389.007 197.651 389.123 197.552C389.12 197.723 389.105 197.935 389.077 198.185C388.988 198.968 388.778 200.029 388.489 201.178C387.909 203.49 387.04 206.054 386.287 207.351L386.287 207.351C385.413 208.857 384.756 209.607 383.975 209.943C383.191 210.28 382.174 210.249 380.436 209.865L380.328 210.354L380.436 209.865C379.673 209.697 378.896 209.575 378.255 209.515C377.935 209.485 377.641 209.469 377.395 209.472C377.171 209.475 376.92 209.492 376.731 209.566L376.731 209.566C376.73 209.567 376.711 209.573 376.666 209.579C376.621 209.585 376.562 209.589 376.489 209.59C376.341 209.59 376.154 209.577 375.939 209.547C375.509 209.487 374.999 209.368 374.522 209.205ZM373.652 195.867C373.652 195.867 373.65 195.868 373.648 195.87C373.65 195.868 373.652 195.866 373.652 195.867ZM389.43 196.805C390.248 197.117 388.3 204.881 386.719 207.602L389.43 196.805Z" fill="black" stroke="black"/>
<path d="M235.687 273.155L235.685 273.173C235.496 274.633 235.398 275.652 235.656 276.511C235.899 277.319 236.485 278.057 237.872 278.85C238.158 278.966 238.313 278.967 238.385 278.952C238.436 278.941 238.485 278.915 238.543 278.818C238.611 278.705 238.671 278.524 238.717 278.26C238.762 278 238.787 277.698 238.807 277.363C238.814 277.256 238.82 277.145 238.826 277.031C238.856 276.46 238.891 275.821 239.014 275.284C239.162 274.645 239.486 273.937 240.289 273.742C241.288 273.5 242.089 273.947 242.657 274.656C243.209 275.346 243.586 276.325 243.825 277.332C244.067 278.349 244.179 279.443 244.173 280.404C244.166 281.299 244.057 282.151 243.8 282.712C243.662 283.609 243.32 284.563 242.923 285.509C242.703 286.035 242.447 286.598 242.195 287.153C241.993 287.597 241.794 288.036 241.616 288.448C241.198 289.417 240.855 290.331 240.696 291.162C240.537 291.992 240.573 292.686 240.854 293.248L240.854 293.249C241.531 294.604 242.089 295.591 242.542 296.226C242.77 296.545 242.955 296.753 243.1 296.874C243.154 296.919 243.193 296.945 243.22 296.96C243.226 296.951 243.233 296.94 243.241 296.926C243.308 296.809 243.384 296.596 243.451 296.255C243.582 295.578 243.652 294.543 243.661 293.124L243.661 293.123C243.668 291.956 243.678 291.059 243.708 290.404C243.723 290.076 243.743 289.8 243.772 289.575C243.8 289.36 243.84 289.153 243.912 288.988C243.977 288.838 244.151 288.546 244.52 288.541C244.674 288.538 244.8 288.593 244.884 288.642C244.97 288.693 245.043 288.756 245.103 288.815C245.326 289.035 245.587 289.428 245.875 289.874L245.875 289.874C246.251 290.456 246.588 291.206 246.834 291.944C247.079 292.677 247.249 293.44 247.263 294.047C247.286 295.046 247.382 295.742 247.533 296.176C247.686 296.614 247.825 296.617 247.856 296.618L247.857 296.618C247.911 296.619 248.017 296.601 248.19 296.505C248.361 296.41 248.569 296.254 248.817 296.024C249.313 295.563 249.916 294.849 250.636 293.864L250.636 293.864C251.482 292.708 252.106 291.802 252.529 291.055C252.954 290.304 253.149 289.757 253.183 289.312C253.245 288.49 252.766 287.819 251.321 286.616C249.754 285.312 248.921 283.141 248.814 281.157C248.709 279.209 249.304 277.183 250.921 276.417L235.687 273.155ZM235.687 273.155L235.688 273.138M235.687 273.155L235.688 273.138M235.688 273.138C235.718 272.641 236.001 271.972 236.546 271.193M235.688 273.138L236.546 271.193M236.546 271.193C237.083 270.426 237.835 269.605 238.719 268.813M236.546 271.193L238.719 268.813M265.667 281.223L265.507 280.749C267.622 280.034 270.403 278.578 271.661 277.546L265.667 281.223ZM265.667 281.223L265.507 280.749C263.255 281.511 261.44 281.674 260.023 281.313C258.629 280.957 257.562 280.08 256.812 278.621C256.169 277.371 255.342 276.495 254.31 276.105M265.667 281.223L254.31 276.105M238.719 268.813C240.494 267.224 242.741 265.805 244.721 265.185M238.719 268.813L244.721 265.185M244.721 265.185C250.383 263.411 257.161 263.698 262.736 265.373C265.52 266.21 267.982 267.387 269.843 268.804C271.707 270.224 272.933 271.858 273.328 273.605M244.721 265.185L273.328 273.605M254.31 276.105C253.271 275.711 252.122 275.847 250.921 276.417L254.31 276.105ZM273.328 273.605C273.552 274.597 273.556 275.173 273.347 275.678M273.328 273.605L273.347 275.678M273.347 275.678C273.129 276.205 272.645 276.737 271.661 277.545L273.347 275.678ZM243.188 296.999C243.188 296.999 243.189 296.998 243.192 296.996C243.189 296.999 243.188 297 243.188 296.999Z" fill="black" stroke="black"/>
</g>
<path d="M315 107.452C200.374 107.452 107.452 200.374 107.452 315C107.452 429.626 200.374 522.548 315 522.548C429.626 522.548 522.548 429.626 522.548 315C522.548 200.374 429.626 107.452 315 107.452ZM7 315C7 144.896 144.896 7 315 7C485.104 7 623 144.896 623 315C623 485.104 485.104 623 315 623C144.896 623 7 485.104 7 315Z" fill="white" stroke="#373737" stroke-width="14" stroke-miterlimit="16"/>
<path d="M118.785 185.971C112.195 195.535 105.701 198.113 99.3022 193.704L75.2553 177.136L80.7429 169.171L104.79 185.74C106.287 186.771 107.654 187.01 108.889 186.456C110.114 185.844 111.547 184.347 113.188 181.964C114.807 179.616 115.66 177.794 115.749 176.5C115.827 175.148 115.117 173.957 113.619 172.925L89.5722 156.357L95.0598 148.392L119.107 164.96C125.506 169.369 125.398 176.373 118.785 185.971Z" fill="#373737"/>
<path d="M103.065 137.225L109.992 130.298L143.179 135.954L123.758 116.533L129.852 110.439L158.304 138.891L151.377 145.818L117.883 139.856L137.612 159.584L131.518 165.678L103.065 137.225Z" fill="#373737"/>
<path d="M139.281 102.641L146.89 96.6698L171.731 128.324L164.122 134.296L139.281 102.641Z" fill="#373737"/>
<path d="M192.195 114.947C190.265 116.068 188.405 116.981 186.616 117.686C184.862 118.37 182.933 118.916 180.829 119.326C178.561 119.783 176.476 119.608 174.573 118.801C172.65 117.959 171.086 116.501 169.882 114.428L161.038 99.202C160.041 97.4864 159.524 95.7316 159.486 93.9374C159.483 92.1225 159.861 90.469 160.619 88.9768C161.297 87.6749 162.287 86.3349 163.59 84.9568C164.893 83.5787 166.192 82.4416 167.488 81.5455C168.677 80.7116 169.968 79.8899 171.362 79.0802C173.006 78.1253 174.477 77.3663 175.776 76.8034C177.053 76.2048 178.557 75.6661 180.286 75.1873C182.292 74.6912 184.057 74.4788 185.58 74.55C187.103 74.6213 188.614 75.0823 190.112 75.933C191.666 76.7987 192.983 78.1608 194.063 80.0194L199.575 89.5087C202.647 94.7985 202.978 98.7413 200.566 101.337L208.179 96.9152L211.667 102.92L200.247 109.553C199.854 109.781 198.691 110.576 196.757 111.938C194.824 113.3 193.303 114.303 192.195 114.947ZM188.846 108.934C190.025 108.248 190.987 107.642 191.732 107.114C192.492 106.529 193.228 105.862 193.941 105.114C194.653 104.365 195.058 103.581 195.154 102.76C195.266 101.882 195.062 100.997 194.543 100.103L185.668 84.8237C184.713 83.1796 183.377 82.4021 181.66 82.4911C179.923 82.5444 177.66 83.3807 174.872 85C172.084 86.6194 170.227 88.1526 169.299 89.5998C168.371 91.0471 168.394 92.6106 169.37 94.2905L178.245 109.57C178.764 110.463 179.433 111.079 180.25 111.417C181.047 111.719 181.965 111.735 183.004 111.467C184.007 111.218 184.933 110.92 185.781 110.57C186.645 110.164 187.666 109.619 188.846 108.934Z" fill="#373737"/>
<path d="M231.3 95.7458C220.366 99.6623 213.589 97.9627 210.968 90.6472L201.121 63.1555L210.227 59.8941L220.074 87.3858C220.687 89.0979 221.657 90.0896 222.983 90.3609C224.335 90.5793 226.373 90.2007 229.096 89.225C231.781 88.2633 233.538 87.283 234.365 86.2841C235.218 85.2323 235.338 83.8504 234.724 82.1382L224.877 54.6465L233.983 51.3851L243.83 78.8768C246.45 86.1924 242.274 91.8154 231.3 95.7458Z" fill="#373737"/>
<path d="M246.768 47.4917L276.958 41.9724L278.195 48.7422L257.52 52.5221L259.181 61.6095L277.844 58.1975L279.082 64.9673L260.419 68.3793L262.281 78.5645L283.566 74.673L284.804 81.4428L254.004 87.0737L246.768 47.4917Z" fill="#373737"/>
<path d="M305.279 39.1079L321.573 39.737C325.414 39.8853 328.356 40.2885 330.399 40.9464C332.484 41.5647 333.937 42.5101 334.756 43.7827C335.578 45.014 335.946 46.7241 335.861 48.9131L335.67 53.8695C335.627 54.9846 335.132 56.0203 334.185 56.9765C333.279 57.9342 332.22 58.5759 331.008 58.9013L330.996 59.2111C332.56 59.4369 333.958 60.1734 335.192 61.4206C336.469 62.6281 337.08 63.9547 337.024 65.4003L336.785 71.5957C336.659 74.8586 335.269 77.1213 332.614 78.3838C329.959 79.6463 325.906 80.1723 320.454 79.9618L303.726 79.3159L305.279 39.1079ZM320.941 56.0928C322.469 56.1518 323.61 56.0718 324.363 55.8527C325.116 55.6336 325.627 55.2603 325.895 54.733C326.207 54.1659 326.383 53.3454 326.425 52.2715L326.501 50.289C326.538 49.3391 326.441 48.6321 326.211 48.1682C325.982 47.663 325.479 47.292 324.703 47.0552C323.967 46.82 322.773 46.6705 321.121 46.6067L314.678 46.3579L314.312 55.8369L320.941 56.0928ZM320.534 73.0777C322.888 73.1686 324.571 72.9648 325.583 72.4661C326.595 71.9674 327.124 71.1192 327.17 69.9215L327.295 66.6999C327.352 65.213 327 64.1446 326.24 63.4948C325.52 62.8465 324.19 62.4849 322.248 62.41L314.071 62.0942L313.657 72.8122L320.534 73.0777Z" fill="#373737"/>
<path d="M345.442 41.2639L354.943 43.076L348.693 75.8413L368.121 79.5469L366.832 86.3071L337.903 80.7893L345.442 41.2639Z" fill="#373737"/>
<path d="M392.221 93.5848C390.132 92.8007 388.248 91.9392 386.569 91.0004C384.929 90.0761 383.285 88.9292 381.635 87.5598C379.846 86.0936 378.661 84.3688 378.081 82.3852C377.515 80.3629 377.653 78.2295 378.495 75.985L384.681 59.4993C385.378 57.6418 386.409 56.1302 387.773 54.9646C389.177 53.8135 390.696 53.0591 392.331 52.7014C393.768 52.4018 395.432 52.3199 397.324 52.4557C399.215 52.5915 400.918 52.8773 402.432 53.313C403.83 53.7051 405.284 54.1843 406.793 54.7506C408.573 55.4186 410.092 56.0768 411.35 56.7253C412.622 57.3351 413.991 58.1578 415.456 59.1933C417.111 60.4321 418.392 61.6635 419.302 62.8877C420.211 64.1118 420.81 65.5729 421.1 67.271C421.414 69.0223 421.194 70.9041 420.439 72.9164L414.253 89.4021C413.469 91.4918 412.233 93.0808 410.544 94.1689C408.894 95.2716 406.957 95.8469 404.731 95.8949C400.726 95.9811 396.556 95.2111 392.221 93.5848ZM394.755 87.185C396.032 87.6642 397.111 88.0248 397.991 88.2669C398.925 88.4848 399.907 88.6325 400.937 88.7101C401.968 88.7877 402.831 88.6041 403.528 88.1591C404.278 87.69 404.835 86.9717 405.198 86.0043L411.405 69.4605C412.073 67.6804 411.829 66.1541 410.673 64.8815C409.532 63.5703 407.452 62.3483 404.433 61.2157C401.415 60.0831 399.052 59.6158 397.344 59.8138C395.636 60.0118 394.441 61.0203 393.759 62.8391L387.551 79.3828C387.188 80.3503 387.135 81.2574 387.391 82.104C387.662 82.912 388.23 83.6329 389.096 84.2668C389.923 84.8862 390.74 85.4137 391.548 85.8492C392.409 86.2606 393.478 86.7059 394.755 87.185Z" fill="#373737"/>
<path d="M431.801 111.75C429.892 110.593 428.199 109.399 426.723 108.166C425.282 106.955 423.877 105.525 422.509 103.874C421.021 102.103 420.175 100.189 419.971 98.1325C419.788 96.0405 420.318 93.9693 421.56 91.9188L430.683 76.8583C431.71 75.1613 433.002 73.866 434.559 72.9723C436.15 72.0999 437.782 71.639 439.456 71.5893C440.923 71.56 442.574 71.7867 444.408 72.2693C446.242 72.752 447.862 73.3471 449.27 74.0548C450.572 74.6983 451.912 75.4376 453.291 76.2728C454.917 77.2578 456.288 78.1851 457.405 79.0546C458.542 79.8888 459.736 80.95 460.985 82.2383C462.382 83.7612 463.415 85.208 464.082 86.579C464.75 87.9499 465.07 89.4965 465.041 91.219C465.027 92.9982 464.463 94.807 463.349 96.6453L454.226 111.706C453.07 113.615 451.562 114.948 449.701 115.706C447.876 116.485 445.866 116.693 443.67 116.329C439.717 115.675 435.761 114.148 431.801 111.75ZM435.473 105.928C436.639 106.634 437.633 107.188 438.454 107.588C439.331 107.975 440.269 108.301 441.267 108.568C442.266 108.834 443.148 108.813 443.915 108.505C444.739 108.182 445.418 107.579 445.954 106.695L455.108 91.5813C456.094 89.955 456.135 88.4099 455.234 86.9458C454.355 85.4464 452.536 83.8616 449.778 82.1912C447.021 80.5209 444.784 79.6254 443.069 79.5048C441.355 79.3842 439.994 80.1546 438.987 81.8163L429.833 96.9298C429.297 97.8137 429.077 98.6953 429.173 99.5747C429.29 100.419 429.715 101.232 430.449 102.015C431.148 102.776 431.854 103.446 432.567 104.023C433.338 104.586 434.306 105.221 435.473 105.928Z" fill="#373737"/>
<path d="M479.891 93.5229L492.715 104.853C496.246 107.973 498.788 110.714 500.34 113.078C501.919 115.411 502.6 117.668 502.384 119.848C502.167 122.028 501.019 124.295 498.939 126.65L488.102 138.916C486.077 141.208 484.054 142.593 482.034 143.069C480.041 143.514 477.789 143.097 475.28 141.818C472.797 140.507 469.744 138.251 466.12 135.049L453.25 123.678L479.891 93.5229ZM470.351 129.604C472.334 131.355 473.889 132.592 475.017 133.313C476.204 134.03 477.233 134.332 478.104 134.22C479.007 134.135 479.923 133.565 480.854 132.512L491.814 120.106C493.073 118.681 493.375 117.184 492.722 115.614C492.127 114.04 490.59 112.159 488.112 109.969L482.583 105.084L465.055 124.924L470.351 129.604Z" fill="#373737"/>
<path d="M516.671 127.036L522.807 134.513L497.023 155.674L509.57 170.962L504.25 175.328L485.567 152.563L516.671 127.036Z" fill="#373737"/>
<path d="M540.645 157.402L545.986 165.466L512.439 187.685L507.098 179.622L540.645 157.402Z" fill="#373737"/>
<path d="M553.748 176.157L557.931 185.015L541.406 214.346L566.243 202.619L569.922 210.412L533.536 227.592L529.354 218.734L546.271 189.217L521.042 201.13L517.362 193.337L553.748 176.157Z" fill="#373737"/>
<path d="M574.663 221.995L583.027 251.524L576.405 253.399L570.677 233.177L561.789 235.694L566.959 253.948L560.338 255.823L555.167 237.57L545.205 240.391L551.102 261.21L544.481 263.086L535.948 232.961L574.663 221.995Z" fill="#373737"/>
<path d="M153.333 437H476.667L509 489.5L476.667 542H153.333L121 489.5L153.333 437Z" fill="#3B3B3B"/>
<path d="M195.628 470.762H211.934C215.778 470.762 218.733 471.051 220.8 471.63C222.908 472.167 224.396 473.056 225.264 474.296C226.132 475.495 226.566 477.189 226.566 479.38V484.34C226.566 485.456 226.111 486.51 225.202 487.502C224.334 488.494 223.301 489.176 222.102 489.548V489.858C223.673 490.023 225.099 490.705 226.38 491.904C227.703 493.061 228.364 494.363 228.364 495.81V502.01C228.364 505.275 227.062 507.59 224.458 508.954C221.854 510.318 217.824 511 212.368 511H195.628V470.762ZM211.934 487.13C213.463 487.13 214.6 487.006 215.344 486.758C216.088 486.51 216.584 486.117 216.832 485.58C217.121 485.001 217.266 484.175 217.266 483.1V481.116C217.266 480.165 217.142 479.463 216.894 479.008C216.646 478.512 216.129 478.161 215.344 477.954C214.6 477.747 213.401 477.644 211.748 477.644H205.3V487.13H211.934ZM212.182 504.118C214.538 504.118 216.212 503.849 217.204 503.312C218.196 502.775 218.692 501.907 218.692 500.708V497.484C218.692 495.996 218.299 494.942 217.514 494.322C216.77 493.702 215.427 493.392 213.484 493.392H205.3V504.118H212.182ZM252.282 511.62C240.667 511.62 234.86 507.735 234.86 499.964V470.762H244.532V499.964C244.532 501.783 245.11 503.043 246.268 503.746C247.466 504.407 249.512 504.738 252.406 504.738C255.258 504.738 257.242 504.407 258.358 503.746C259.515 503.043 260.094 501.783 260.094 499.964V470.762H269.766V499.964C269.766 507.735 263.938 511.62 252.282 511.62ZM278.335 470.762H288.007V504.118H307.785V511H278.335V470.762ZM314.3 470.762H323.972V504.118H343.75V511H314.3V470.762ZM350.265 470.762H359.937V511H350.265V470.762ZM368.611 470.762H399.301V477.644H378.283V486.882H397.255V493.764H378.283V504.118H399.921V511H368.611V470.762ZM419.472 511.62C415.628 511.62 410.875 511.248 405.212 510.504V503.126C412.239 504.201 417.034 504.738 419.596 504.738C424.97 504.738 427.656 503.353 427.656 500.584V497.98C427.656 496.657 427.264 495.645 426.478 494.942C425.734 494.239 424.37 493.888 422.386 493.888H417.674C408.829 493.888 404.406 490.375 404.406 483.348V480.372C404.406 476.859 405.874 474.275 408.808 472.622C411.743 470.969 416.393 470.142 422.758 470.142C426.065 470.142 430.26 470.411 435.344 470.948V478.14C429.103 477.396 424.804 477.024 422.448 477.024C419.183 477.024 416.992 477.293 415.876 477.83C414.678 478.409 414.078 479.318 414.078 480.558V483.41C414.078 485.518 415.856 486.572 419.41 486.572H424.246C428.834 486.572 432.162 487.419 434.228 489.114C436.295 490.809 437.328 493.392 437.328 496.864V499.53C437.328 504.325 435.613 507.569 432.182 509.264C430.529 510.132 428.69 510.731 426.664 511.062C424.68 511.434 422.283 511.62 419.472 511.62Z" fill="white"/>
</g>
<defs>
<clipPath id="clip0_53_29">
<rect width="630" height="630" fill="white"/>
</clipPath>
</defs>
</svg>
